# xmcd
#
# Track frame offsets:
#	150
#	14456
#	26646
#	40896
#	60584
#	73473
#	90940
#	105435
#	121611
#	135486
#	149095
#	165662
#	176900
#
# Disc length: 2639 seconds
# Revision: 1
# Processed by: cddbd v1.5.2PL0 Copyright (c) Steve Scherf et al.
# Submitted via: dBpowerAMP V12.0
#
DISCID=b10a4d0d
DTITLE=LeeDeWyze,AKALeonJamesDeWyzeJr,MountProspect,IL - Frames
DYEAR=2013
DGENRE=
TTITLE0=Fight
TTITLE1=Fire Away
TTITLE2=Silver Lining
TTITLE3=Frames
TTITLE4=Like I Do
TTITLE5=Open Your Eyes
TTITLE6=You Don't Know Me
TTITLE7=The Ride
TTITLE8=Don't Be Afraid
TTITLE9=Stay Away
TTITLE10=Little Did I Know
TTITLE11=Who Would've Known
TTITLE12=Breathing In
EXTD=
EXTT0=
EXTT1=
EXTT2=
EXTT3=
EXTT4=
EXTT5=
EXTT6=
EXTT7=
EXTT8=
EXTT9=
EXTT10=
EXTT11=
EXTT12=
PLAYORDER=
